<svg width="72" height="74" viewBox="0 0 72 74" fill="none" xmlns="http://www.w3.org/2000/svg">
<path fill-rule="evenodd" clip-rule="evenodd" d="M53 62C54.1046 62 55 62.8954 55 64C55 65.1046 54.1046 66 53 66H35C34.8824 66 34.7673 65.9899 34.6553 65.9704C28.2305 65.687 22.3308 63.3828 17.5761 59.6779C17.1894 59.3766 16.6067 58.8771 16.1748 58.5013C15.8054 58.1799 15.3333 58 14.8436 58H10C8.89543 58 8 57.1046 8 56C8 54.8954 8.89543 54 10 54H12C13.1046 54 14 53.1046 14 52C14 50.8954 13.1046 50 12 50H7C5.89543 50 5 49.1046 5 48C5 46.8954 5.89543 46 7 46H8C9.10457 46 10 45.1046 10 44C10 42.8954 9.10457 42 8 42C7.1913 42 6.49962 41.4171 6.36506 40.6196C6.31617 40.3299 6.27734 40.0966 6.27093 40.0492C6.09227 38.7249 6 37.3732 6 36C6 19.4315 19.4315 6 36 6C41 6 46 6 51 6C52.1046 6 53 6.89543 53 8C53 9.10457 52.1046 10 51 10H48C46.8954 10 46 10.8954 46 12C46 13.1046 46.8954 14 48 14H60C61.1046 14 62 14.8954 62 16C62 17.1038 61.1058 17.9988 60.0022 18L57 18C55.8954 18 55 18.8954 55 20C55 21.1046 55.8954 22 57 22H61.306C62.0624 22 62.7556 22.4259 63.0835 23.1075C63.2807 23.5171 63.488 23.959 63.6237 24.2783C65.1536 27.8793 66 31.8408 66 36C66 37.3068 65.9164 38.5942 65.7544 39.8569C65.7271 40.0692 65.6853 40.3418 65.6398 40.6208C65.5093 41.4213 64.8111 42 64 42C62.8954 42 62 42.8954 62 44C62 45.1046 62.8954 46 64 46H65C66.1046 46 67 46.8954 67 48C67 49.1046 66.1046 50 65 50H63.7162C62.9901 50 62.3224 50.3942 61.9597 51.0232C61.7241 51.4317 61.4621 51.8761 61.2675 52.1794C60.8114 52.8903 60.326 53.5807 59.8132 54.2489C59.2981 54.9201 58.7553 55.5688 58.1864 56.1934C57.8743 56.5362 57.3685 57.044 56.974 57.4341C56.605 57.799 56.1061 58 55.5871 58H50C48.8954 58 48 58.8954 48 60C48 61.0969 48.883 61.9875 49.9769 61.9999L53 62Z" fill="url(#paint0_linear_0_10934)"/>
<g opacity="0.1">
<path fill-rule="evenodd" clip-rule="evenodd" d="M32.9985 12.6768C34.8549 11.605 37.1421 11.605 38.9985 12.6768L54.697 21.7403C56.5534 22.8121 57.697 24.7929 57.697 26.9365V45.0635C57.697 47.2071 56.5534 49.1879 54.697 50.2597L38.9985 59.3232C37.1421 60.395 34.8549 60.395 32.9985 59.3232L17.3 50.2597C15.4436 49.1879 14.3 47.2071 14.3 45.0636L14.3 26.9365C14.3 24.7929 15.4436 22.8121 17.3 21.7403L32.9985 12.6768Z" fill="black" style="mix-blend-mode:multiply"/>
</g>
<g filter="url(#filter0_d_0_10934)">
<path fill-rule="evenodd" clip-rule="evenodd" d="M20 33H36V63.382C36 64.1253 35.2177 64.6088 34.5528 64.2764L28 61L21.4472 64.2764C20.7823 64.6088 20 64.1253 20 63.382V33Z" fill="#7F45F6"/>
</g>
<g filter="url(#filter1_d_0_10934)">
<path fill-rule="evenodd" clip-rule="evenodd" d="M24 36H40V66.382C40 67.1253 39.2177 67.6088 38.5528 67.2764L32 64L25.4472 67.2764C24.7823 67.6088 24 67.1253 24 66.382V36Z" fill="#50E2C2"/>
</g>
<g filter="url(#filter2_d_0_10934)">
<path fill-rule="evenodd" clip-rule="evenodd" d="M36 33H52V63.382C52 64.1253 51.2177 64.6088 50.5528 64.2764L44 61L37.4472 64.2764C36.7823 64.6088 36 64.1253 36 63.382V33Z" fill="#7F45F6"/>
</g>
<g filter="url(#filter3_d_0_10934)">
<path fill-rule="evenodd" clip-rule="evenodd" d="M32 36H48V66.382C48 67.1253 47.2177 67.6088 46.5528 67.2764L40 64L33.4472 67.2764C32.7823 67.6088 32 67.1253 32 66.382V36Z" fill="#50E2C2"/>
</g>
<g filter="url(#filter4_d_0_10934)">
<path fill-rule="evenodd" clip-rule="evenodd" d="M28 38H44V68.382C44 69.1253 43.2177 69.6088 42.5528 69.2764L36 66L29.4472 69.2764C28.7823 69.6088 28 69.1253 28 68.382V38Z" fill="white"/>
</g>
<mask id="mask0_0_10934" style="mask-type:luminance" maskUnits="userSpaceOnUse" x="28" y="38" width="16" height="32">
<path fill-rule="evenodd" clip-rule="evenodd" d="M28 38H44V68.382C44 69.1253 43.2177 69.6088 42.5528 69.2764L36 66L29.4472 69.2764C28.7823 69.6088 28 69.1253 28 68.382V38Z" fill="white"/>
</mask>
<g mask="url(#mask0_0_10934)">
<rect x="32" y="38" width="8" height="32" fill="#F55462"/>
</g>
<path style="mix-blend-mode:multiply" opacity="0.1" fill-rule="evenodd" clip-rule="evenodd" d="M34 17.6559C35.2376 16.9414 36.7624 16.9414 38 17.6559L53.9186 26.8465C55.1562 27.561 55.9186 28.8815 55.9186 30.3106V48.6918C55.9186 50.1209 55.1562 51.4414 53.9186 52.1559L38 61.3465C36.7624 62.061 35.2376 62.061 34 61.3465L18.0814 52.1559C16.8438 51.4414 16.0814 50.1209 16.0814 48.6918L16.0814 30.3106C16.0814 28.8815 16.8438 27.561 18.0814 26.8465L34 17.6559Z" fill="black"/>
<path fill-rule="evenodd" clip-rule="evenodd" d="M24.8165 39.1237L19.8165 37.1237V36.1237L14.8067 34.0363C14.3736 33.8558 13.9103 34.2199 13.9832 34.6833L14.6846 39.1427C14.7374 39.4785 14.9572 39.7645 15.2681 39.9019L24.8165 44.1237V39.1237Z" fill="url(#paint1_linear_0_10934)" stroke="url(#paint2_linear_0_10934)" stroke-linecap="round" stroke-linejoin="round"/>
<path fill-rule="evenodd" clip-rule="evenodd" d="M22.8165 34.1237L17.8165 32.1237V31.1237L12.8067 29.0363C12.3736 28.8558 11.9103 29.2199 11.9832 29.6833L12.6846 34.1427C12.7374 34.4785 12.9572 34.7645 13.2681 34.9019L22.8165 39.1237V34.1237Z" fill="url(#paint3_linear_0_10934)" stroke="url(#paint4_linear_0_10934)" stroke-linecap="round" stroke-linejoin="round"/>
<path fill-rule="evenodd" clip-rule="evenodd" d="M20.8165 29.1237L15.8165 27.1237V26.1237L10.8067 24.0363C10.3736 23.8558 9.91028 24.2199 9.98318 24.6833L10.6846 29.1427C10.7374 29.4785 10.9572 29.7645 11.2681 29.9019L20.8165 34.1237V29.1237Z" fill="url(#paint5_linear_0_10934)" stroke="url(#paint6_linear_0_10934)" stroke-linecap="round" stroke-linejoin="round"/>
<path fill-rule="evenodd" clip-rule="evenodd" d="M18.8165 24.1237L13.8165 22.1237V21.1237L8.80666 19.0363C8.37359 18.8558 7.91028 19.2199 7.98318 19.6834L8.6846 24.1427C8.73741 24.4785 8.95718 24.7645 9.26807 24.9019L18.8165 29.1237V24.1237Z" fill="url(#paint7_linear_0_10934)" stroke="url(#paint8_linear_0_10934)" stroke-linecap="round" stroke-linejoin="round"/>
<mask id="mask1_0_10934" style="mask-type:luminance" maskUnits="userSpaceOnUse" x="7" y="18" width="19" height="26">
<path fill-rule="evenodd" clip-rule="evenodd" d="M10.2104 26.1281C10.1251 25.5858 9.77017 25.1239 9.26807 24.9019C8.95718 24.7645 8.73741 24.4785 8.68459 24.1427L7.98318 19.6833C7.96595 19.5738 7.97941 19.4617 8.02205 19.3593C8.1495 19.0535 8.50078 18.9088 8.80666 19.0363L13.3585 20.9329C13.6359 21.0484 13.8165 21.3194 13.8165 21.6198C13.8165 21.9242 14.0018 22.1978 14.2843 22.3108L17.5593 23.6208C18.3186 23.9245 18.8165 24.66 18.8165 25.4778V27.2467C18.8165 27.8972 19.2125 28.4821 19.8165 28.7237C20.4205 28.9653 20.8165 29.5503 20.8165 30.2007V32.2467C20.8165 32.8972 21.2125 33.4821 21.8165 33.7237C22.4205 33.9653 22.8165 34.5503 22.8165 35.2007V37.2467C22.8165 37.8972 23.2125 38.4821 23.8165 38.7237C24.4205 38.9653 24.8165 39.5503 24.8165 40.2007V41.0527C24.8165 42.4983 23.3299 43.4664 22.0078 42.8818L15.2681 39.9019C14.9572 39.7645 14.7374 39.4785 14.6846 39.1427L14.2104 36.1281C14.1251 35.5858 13.7702 35.1239 13.2681 34.9019C12.9572 34.7645 12.7374 34.4785 12.6846 34.1427L12.2104 31.1281C12.1251 30.5858 11.7702 30.1239 11.2681 29.9019C10.9572 29.7645 10.7374 29.4785 10.6846 29.1427L10.2104 26.1281Z" fill="white" stroke="white"/>
</mask>
<g mask="url(#mask1_0_10934)">
<g opacity="0.1">
<path fill-rule="evenodd" clip-rule="evenodd" d="M32.9985 12.6768C34.8549 11.605 37.1421 11.605 38.9985 12.6768L54.697 21.7403C56.5534 22.8121 57.697 24.7929 57.697 26.9365V45.0635C57.697 47.2071 56.5534 49.1879 54.697 50.2597L38.9985 59.3232C37.1421 60.395 34.8549 60.395 32.9985 59.3232L17.2999 50.2597C15.4435 49.1879 14.2999 47.2071 14.2999 45.0636L14.2999 26.9365C14.2999 24.7929 15.4435 22.8121 17.2999 21.7403L32.9985 12.6768Z" fill="black" style="mix-blend-mode:multiply"/>
</g>
</g>
<path fill-rule="evenodd" clip-rule="evenodd" d="M47.1834 39.1237L52.1834 37.1237V36.1237L57.1933 34.0363C57.6263 33.8558 58.0896 34.2199 58.0167 34.6833L57.3153 39.1427C57.2625 39.4785 57.0427 39.7645 56.7318 39.9019L47.1834 44.1237V39.1237Z" fill="url(#paint9_linear_0_10934)" stroke="url(#paint10_linear_0_10934)" stroke-linecap="round" stroke-linejoin="round"/>
<path fill-rule="evenodd" clip-rule="evenodd" d="M49.1834 34.1237L54.1834 32.1237V31.1237L59.1933 29.0363C59.6263 28.8558 60.0896 29.2199 60.0167 29.6833L59.3153 34.1427C59.2625 34.4785 59.0427 34.7645 58.7318 34.9019L49.1834 39.1237V34.1237Z" fill="url(#paint11_linear_0_10934)" stroke="url(#paint12_linear_0_10934)" stroke-linecap="round" stroke-linejoin="round"/>
<path fill-rule="evenodd" clip-rule="evenodd" d="M51.1834 29.1237L56.1834 27.1237V26.1237L61.1933 24.0363C61.6263 23.8558 62.0896 24.2199 62.0167 24.6833L61.3153 29.1427C61.2625 29.4785 61.0427 29.7645 60.7318 29.9019L51.1834 34.1237V29.1237Z" fill="url(#paint13_linear_0_10934)" stroke="url(#paint14_linear_0_10934)" stroke-linecap="round" stroke-linejoin="round"/>
<path fill-rule="evenodd" clip-rule="evenodd" d="M53.1834 24.1237L58.1834 22.1237V21.1237L63.1933 19.0363C63.6263 18.8558 64.0896 19.2199 64.0167 19.6833L63.3153 24.1427C63.2625 24.4785 63.0427 24.7645 62.7319 24.9019L53.1834 29.1237V24.1237Z" fill="url(#paint15_linear_0_10934)" stroke="url(#paint16_linear_0_10934)" stroke-linecap="round" stroke-linejoin="round"/>
<mask id="mask2_0_10934" style="mask-type:luminance" maskUnits="userSpaceOnUse" x="46" y="18" width="19" height="26">
<path fill-rule="evenodd" clip-rule="evenodd" d="M61.7895 26.1281C61.8748 25.5858 62.2298 25.1239 62.7319 24.9019C63.0427 24.7645 63.2625 24.4785 63.3153 24.1427L64.0167 19.6833C64.034 19.5738 64.0205 19.4617 63.9779 19.3593C63.8504 19.0535 63.4991 18.9088 63.1933 19.0363L58.6414 20.9329C58.3641 21.0484 58.1834 21.3194 58.1834 21.6198C58.1834 21.9242 57.9981 22.1978 57.7156 22.3108L54.4406 23.6208C53.6813 23.9245 53.1834 24.66 53.1834 25.4778V27.2467C53.1834 27.8972 52.7874 28.4821 52.1834 28.7237C51.5794 28.9653 51.1834 29.5503 51.1834 30.2007V32.2467C51.1834 32.8972 50.7874 33.4821 50.1834 33.7237C49.5794 33.9653 49.1834 34.5503 49.1834 35.2007V37.2467C49.1834 37.8972 48.7874 38.4821 48.1834 38.7237C47.5794 38.9653 47.1834 39.5503 47.1834 40.2007V41.0527C47.1834 42.4983 48.67 43.4664 49.9922 42.8818L56.7319 39.9019C57.0427 39.7645 57.2625 39.4785 57.3153 39.1427L57.7895 36.1281C57.8748 35.5858 58.2298 35.1239 58.7319 34.9019C59.0427 34.7645 59.2625 34.4785 59.3153 34.1427L59.7895 31.1281C59.8748 30.5858 60.2298 30.1239 60.7319 29.9019C61.0427 29.7645 61.2625 29.4785 61.3153 29.1427L61.7895 26.1281Z" fill="white" stroke="white"/>
</mask>
<g mask="url(#mask2_0_10934)">
<g opacity="0.1">
<path fill-rule="evenodd" clip-rule="evenodd" d="M38.9985 12.6767C37.1421 11.6049 34.8549 11.6049 32.9985 12.6767L17.3 21.7403C15.4435 22.8121 14.3 24.7928 14.3 26.9364V45.0635C14.3 47.2071 15.4435 49.1879 17.3 50.2597L32.9985 59.3232C34.8549 60.395 37.1421 60.395 38.9985 59.3232L54.697 50.2597C56.5534 49.1879 57.697 47.2071 57.697 45.0635L57.697 26.9364C57.697 24.7928 56.5534 22.8121 54.697 21.7403L38.9985 12.6767Z" fill="black" style="mix-blend-mode:multiply"/>
</g>
</g>
<path fill-rule="evenodd" clip-rule="evenodd" d="M18 42L14.4739 43.763C14.1775 43.9112 13.9737 44.1967 13.9299 44.5253L13.1602 50.2982C13.0945 50.7906 13.6214 51.1449 14.0526 50.8985L20 47.5L18 42Z" fill="url(#paint17_linear_0_10934)" stroke="url(#paint18_linear_0_10934)" stroke-linecap="round" stroke-linejoin="round"/>
<path fill-rule="evenodd" clip-rule="evenodd" d="M54 42L57.526 43.763C57.8225 43.9112 58.0262 44.1967 58.07 44.5253L58.8397 50.2982C58.9054 50.7906 58.3786 51.1449 57.9473 50.8985L52 47.5L54 42Z" fill="url(#paint19_linear_0_10934)" stroke="url(#paint20_linear_0_10934)" stroke-linecap="round" stroke-linejoin="round"/>
<path d="M44.2302 16.0518C44.6781 16.3044 44.4989 16.9873 43.9846 16.9873H28.0152C27.5006 16.9873 27.3216 16.3037 27.7702 16.0515L35.7666 11.5557C35.919 11.4701 36.105 11.4702 36.2573 11.556L44.2302 16.0518Z" fill="url(#paint21_linear_0_10934)" stroke="url(#paint22_linear_0_10934)" stroke-linecap="round" stroke-linejoin="round"/>
<g filter="url(#filter5_i_0_10934)">
<path fill-rule="evenodd" clip-rule="evenodd" d="M54 50.0303C54 50.3876 53.8094 50.7177 53.5 50.8964L39 59.268C37.1436 60.3397 34.8564 60.3397 33 59.268L18.5 50.8964C18.1906 50.7177 18 50.3876 18 50.0303V46.129C18 45.3582 18.8353 44.8772 19.502 45.2641L33.1888 53.2083C34.9271 54.2173 37.0728 54.2173 38.8112 53.2083L52.498 45.2641C53.1647 44.8772 54 45.3582 54 46.129V50.0303Z" fill="url(#paint23_linear_0_10934)"/>
</g>
<path d="M53.5 50.0303C53.5 50.209 53.4047 50.374 53.25 50.4634L38.75 58.8349C37.0483 59.8174 34.9517 59.8174 33.25 58.8349L18.75 50.4634C18.5953 50.374 18.5 50.209 18.5 50.0303V46.129C18.5 45.7436 18.9177 45.5031 19.251 45.6965L32.9378 53.6408C34.8313 54.7398 37.1686 54.7398 39.0622 53.6408L52.749 45.6965C53.0823 45.5031 53.5 45.7436 53.5 46.129V50.0303Z" stroke="url(#paint24_linear_0_10934)" stroke-linecap="round" stroke-linejoin="round"/>
<mask id="path-28-inside-1_0_10934" fill="white">
<path fill-rule="evenodd" clip-rule="evenodd" d="M32.0025 14.7366C32.0025 14.738 32.0025 14.7394 32.0025 14.7409V18.4648C32.0025 18.5588 31.9893 18.6511 31.9641 18.7393C31.9109 18.9255 31.8044 19.0936 31.6562 19.2216C31.625 19.2485 31.5919 19.2737 31.5572 19.2969L31.5571 19.2969L24.1605 24.2269L21.5546 25.9638C20.89 26.4068 20 25.9304 20 25.1317V20.5744C20 20.2187 20.1889 19.8898 20.4962 19.7106L27.638 15.5455L30.1705 11.7474C30.7194 10.9243 32.0025 11.3128 32.0025 12.3022V14.7366Z"/>
</mask>
<path fill-rule="evenodd" clip-rule="evenodd" d="M32.0025 14.7366C32.0025 14.738 32.0025 14.7394 32.0025 14.7409V18.4648C32.0025 18.5588 31.9893 18.6511 31.9641 18.7393C31.9109 18.9255 31.8044 19.0936 31.6562 19.2216C31.625 19.2485 31.5919 19.2737 31.5572 19.2969L31.5571 19.2969L24.1605 24.2269L21.5546 25.9638C20.89 26.4068 20 25.9304 20 25.1317V20.5744C20 20.2187 20.1889 19.8898 20.4962 19.7106L27.638 15.5455L30.1705 11.7474C30.7194 10.9243 32.0025 11.3128 32.0025 12.3022V14.7366Z" fill="url(#paint25_linear_0_10934)"/>
<path d="M32.0025 14.7366H31.0025L31.0025 14.7406L32.0025 14.7366ZM31.9641 18.7393L31.0026 18.4647L31.0026 18.4647L31.9641 18.7393ZM31.6562 19.2216L32.3097 19.9785L32.3097 19.9784L31.6562 19.2216ZM31.5572 19.2969L31.958 20.213C32.0116 20.1896 32.0631 20.1614 32.1118 20.129L31.5572 19.2969ZM31.5571 19.2969L31.1563 18.3807C31.1027 18.4042 31.0512 18.4323 31.0025 18.4648L31.5571 19.2969ZM24.1605 24.2269L23.6059 23.3948H23.6059L24.1605 24.2269ZM21.5546 25.9638L22.1092 26.7959H22.1092L21.5546 25.9638ZM20.4962 19.7106L19.9924 18.8468L19.9924 18.8468L20.4962 19.7106ZM27.638 15.5455L28.1418 16.4093C28.2732 16.3326 28.3855 16.2269 28.47 16.1002L27.638 15.5455ZM30.1705 11.7474L31.0025 12.3022L31.0025 12.3022L30.1705 11.7474ZM31.0025 14.7406C31.0025 14.7407 31.0025 14.7408 31.0025 14.7409H33.0025C33.0025 14.7381 33.0025 14.7353 33.0025 14.7326L31.0025 14.7406ZM31.0025 14.7409V18.4648H33.0025V14.7409H31.0025ZM31.0025 18.4648L31.0026 18.4647L32.9257 19.0138C32.9761 18.8373 33.0025 18.6527 33.0025 18.4648H31.0025ZM31.0026 18.4647L31.0026 18.4647L32.3097 19.9784C32.6063 19.7223 32.8194 19.3862 32.9257 19.0138L31.0026 18.4647ZM31.0026 18.4647L31.0025 18.4647L32.1118 20.129C32.1813 20.0826 32.2473 20.0323 32.3097 19.9785L31.0026 18.4647ZM31.1563 18.3807L31.1563 18.3807L31.958 20.213L31.958 20.213L31.1563 18.3807ZM31.0025 18.4648L23.6059 23.3948L24.7151 25.059L32.1118 20.129L31.0025 18.4648ZM23.6059 23.3948L21 25.1317L22.1092 26.7959L24.7151 25.059L23.6059 23.3948ZM21 25.1317L21 25.1317H19C19 26.729 20.7801 27.6818 22.1092 26.7959L21 25.1317ZM21 25.1317V20.5744H19V25.1317H21ZM21 20.5744L21 20.5744L19.9924 18.8468C19.3779 19.2052 19 19.863 19 20.5744H21ZM21 20.5744L28.1418 16.4093L27.1342 14.6816L19.9924 18.8468L21 20.5744ZM28.47 16.1002L31.0025 12.3022L29.3385 11.1926L26.806 14.9907L28.47 16.1002ZM31.0025 12.3022L31.0025 12.3022H33.0025C33.0025 10.3235 30.4363 9.54636 29.3385 11.1926L31.0025 12.3022ZM31.0025 12.3022V14.7366H33.0025V12.3022H31.0025Z" fill="url(#paint26_linear_0_10934)" mask="url(#path-28-inside-1_0_10934)"/>
<mask id="path-30-inside-2_0_10934" fill="white">
<path fill-rule="evenodd" clip-rule="evenodd" d="M40 14.7366C40 14.738 40 14.7394 40 14.7409V18.4648C40 18.7991 40.1671 19.1114 40.4454 19.2969L40.4454 19.2969L47.842 24.2269L50.4479 25.9638C51.1125 26.4068 52.0025 25.9304 52.0025 25.1317V20.5744C52.0025 20.2187 51.8136 19.8898 51.5063 19.7106L44.3646 15.5455L41.832 11.7474C41.2831 10.9243 40 11.3128 40 12.3022V14.7366Z"/>
</mask>
<path fill-rule="evenodd" clip-rule="evenodd" d="M40 14.7366C40 14.738 40 14.7394 40 14.7409V18.4648C40 18.7991 40.1671 19.1114 40.4454 19.2969L40.4454 19.2969L47.842 24.2269L50.4479 25.9638C51.1125 26.4068 52.0025 25.9304 52.0025 25.1317V20.5744C52.0025 20.2187 51.8136 19.8898 51.5063 19.7106L44.3646 15.5455L41.832 11.7474C41.2831 10.9243 40 11.3128 40 12.3022V14.7366Z" fill="url(#paint27_linear_0_10934)"/>
<path d="M40 14.7366L41 14.7406V14.7366H40ZM40.4454 19.2969L39.8907 20.129C39.951 20.1691 40.0154 20.2026 40.0829 20.2289L40.4454 19.2969ZM40.4454 19.2969L41 18.4648C40.9397 18.4246 40.8753 18.3911 40.8078 18.3649L40.4454 19.2969ZM47.842 24.2269L48.3966 23.3948L48.3966 23.3948L47.842 24.2269ZM50.4479 25.9638L49.8933 26.7959H49.8933L50.4479 25.9638ZM51.5063 19.7106L52.0101 18.8468L52.0101 18.8468L51.5063 19.7106ZM44.3646 15.5455L43.5326 16.1002C43.617 16.2269 43.7293 16.3326 43.8608 16.4093L44.3646 15.5455ZM41.832 11.7474L42.664 11.1926V11.1926L41.832 11.7474ZM39 14.7326C39 14.7353 39 14.7381 39 14.7409H41C41 14.7408 41 14.7407 41 14.7406L39 14.7326ZM39 14.7409V18.4648H41V14.7409H39ZM39 18.4648C39 19.1335 39.3343 19.758 39.8907 20.129L41 18.4648H41H39ZM40.0829 20.2289L40.0829 20.2289L40.8078 18.3649L40.8078 18.3649L40.0829 20.2289ZM39.8908 20.129L47.2874 25.059L48.3966 23.3948L41 18.4648L39.8908 20.129ZM47.2874 25.059L49.8933 26.7959L51.0025 25.1317L48.3966 23.3948L47.2874 25.059ZM49.8933 26.7959C51.2224 27.6818 53.0025 26.729 53.0025 25.1317H51.0025L51.0025 25.1317L49.8933 26.7959ZM53.0025 25.1317V20.5744H51.0025V25.1317H53.0025ZM53.0025 20.5744C53.0025 19.863 52.6246 19.2052 52.0101 18.8468L51.0025 20.5744L51.0025 20.5744H53.0025ZM52.0101 18.8468L44.8683 14.6816L43.8608 16.4093L51.0025 20.5744L52.0101 18.8468ZM45.1966 14.9907L42.664 11.1926L41 12.3022L43.5326 16.1002L45.1966 14.9907ZM42.664 11.1926C41.5662 9.54636 39 10.3235 39 12.3022H41L41 12.3022L42.664 11.1926ZM39 12.3022V14.7366H41V12.3022H39Z" fill="url(#paint28_linear_0_10934)" mask="url(#path-30-inside-2_0_10934)"/>
<path fill-rule="evenodd" clip-rule="evenodd" d="M34 14.1547C35.2376 13.4402 36.7624 13.4402 38 14.1547L53.9186 23.3453C55.1562 24.0598 55.9186 25.3803 55.9186 26.8094V45.1906C55.9186 46.6197 55.1562 47.9402 53.9186 48.6547L38 57.8453C36.7624 58.5598 35.2376 58.5598 34 57.8453L18.0814 48.6547C16.8438 47.9402 16.0814 46.6197 16.0814 45.1906V26.8094C16.0814 25.3803 16.8438 24.0598 18.0814 23.3453L34 14.1547Z" fill="url(#paint29_linear_0_10934)" stroke="#FFF04D" stroke-opacity="0.4"/>
<mask id="mask3_0_10934" style="mask-type:luminance" maskUnits="userSpaceOnUse" x="16" y="13" width="40" height="46">
<path fill-rule="evenodd" clip-rule="evenodd" d="M34 14.1547C35.2376 13.4402 36.7624 13.4402 38 14.1547L53.9186 23.3453C55.1562 24.0598 55.9186 25.3803 55.9186 26.8094V45.1906C55.9186 46.6197 55.1562 47.9402 53.9186 48.6547L38 57.8453C36.7624 58.5598 35.2376 58.5598 34 57.8453L18.0814 48.6547C16.8438 47.9402 16.0814 46.6197 16.0814 45.1906V26.8094C16.0814 25.3803 16.8438 24.0598 18.0814 23.3453L34 14.1547Z" fill="white"/>
</mask>
<g mask="url(#mask3_0_10934)">
<g style="mix-blend-mode:multiply" opacity="0.4">
<path d="M36 35.9999L42 12H30L36 35.9999L23.2721 14.7868L14.7868 23.2721L36 35.9999L12 30V42L36 35.9999L14.7868 48.7279L23.2721 57.2132L36 35.9999L30 60H42L36 35.9999L48.7279 57.2132L57.2131 48.7279L36 35.9999L60 42V30L36 35.9999L57.2131 23.2721L48.7279 14.7868L36 35.9999Z" fill="#FFD640"/>
</g>
<g filter="url(#filter6_di_0_10934)">
<path fill-rule="evenodd" clip-rule="evenodd" d="M51.671 25.1885L37.5165 17.0068C36.5781 16.4644 35.4219 16.4644 34.4834 17.0068L20.329 25.1885C19.3905 25.731 18.8124 26.7334 18.8124 27.8183V33.7207L17.665 35.444C17.4414 35.7796 17.4414 36.2168 17.665 36.5525L18.8124 38.2757V44.1817C18.8124 45.2666 19.3905 46.2691 20.329 46.8115L34.4834 54.9932C35.4219 55.5356 36.5781 55.5356 37.5165 54.9932L51.671 46.8115C52.6094 46.2691 53.1875 45.2666 53.1875 44.1817V38.2757L54.335 36.5525C54.5585 36.2168 54.5585 35.7796 54.335 35.444L53.1875 33.7207V27.8183C53.1875 26.7334 52.6094 25.731 51.671 25.1885ZM19.8235 38.2757V44.1817C19.8235 44.9049 20.2089 45.5732 20.8345 45.9349L34.9889 54.1165C35.6146 54.4782 36.3854 54.4782 37.011 54.1165L51.1654 45.9349C51.7911 45.5732 52.1765 44.9049 52.1765 44.1817V38.2757L51.029 36.5525C50.8055 36.2168 50.8055 35.7796 51.029 35.444L52.1765 33.7207V27.8183C52.1765 27.095 51.7911 26.4267 51.1654 26.0651L37.011 17.8834C36.3854 17.5218 35.6146 17.5218 34.9889 17.8834L20.8345 26.0651C20.2089 26.4267 19.8235 27.095 19.8235 27.8183V33.7207L20.971 35.444C21.1945 35.7796 21.1945 36.2168 20.971 36.5525L19.8235 38.2757Z" fill="#676763"/>
</g>
<mask id="mask4_0_10934" style="mask-type:luminance" maskUnits="userSpaceOnUse" x="17" y="16" width="38" height="40">
<path fill-rule="evenodd" clip-rule="evenodd" d="M51.671 25.1885L37.5165 17.0068C36.5781 16.4644 35.4219 16.4644 34.4834 17.0068L20.329 25.1885C19.3905 25.731 18.8124 26.7334 18.8124 27.8183V33.7207L17.665 35.444C17.4414 35.7796 17.4414 36.2168 17.665 36.5525L18.8124 38.2757V44.1817C18.8124 45.2666 19.3905 46.2691 20.329 46.8115L34.4834 54.9932C35.4219 55.5356 36.5781 55.5356 37.5165 54.9932L51.671 46.8115C52.6094 46.2691 53.1875 45.2666 53.1875 44.1817V38.2757L54.335 36.5525C54.5585 36.2168 54.5585 35.7796 54.335 35.444L53.1875 33.7207V27.8183C53.1875 26.7334 52.6094 25.731 51.671 25.1885ZM19.8235 38.2757V44.1817C19.8235 44.9049 20.2089 45.5732 20.8345 45.9349L34.9889 54.1165C35.6146 54.4782 36.3854 54.4782 37.011 54.1165L51.1654 45.9349C51.7911 45.5732 52.1765 44.9049 52.1765 44.1817V38.2757L51.029 36.5525C50.8055 36.2168 50.8055 35.7796 51.029 35.444L52.1765 33.7207V27.8183C52.1765 27.095 51.7911 26.4267 51.1654 26.0651L37.011 17.8834C36.3854 17.5218 35.6146 17.5218 34.9889 17.8834L20.8345 26.0651C20.2089 26.4267 19.8235 27.095 19.8235 27.8183V33.7207L20.971 35.444C21.1945 35.7796 21.1945 36.2168 20.971 36.5525L19.8235 38.2757Z" fill="white"/>
</mask>
<g mask="url(#mask4_0_10934)">
<g style="mix-blend-mode:multiply" opacity="0.4">
<path fill-rule="evenodd" clip-rule="evenodd" d="M36 36L12 30V42L36 36ZM36 36L42 12H30L36 36ZM36 36L60 42V30L36 36ZM36 36L48.7279 14.7868L57.2132 23.2721L36 36ZM36 36L57.2132 48.7279L48.7279 57.2132L36 36ZM36 36L23.2721 57.2132L14.7868 48.7279L36 36ZM36 36L42 60H30L36 36Z" fill="#5A5951"/>
<path d="M23.2721 14.7868L14.7868 23.2721L36 36L23.2721 14.7868Z" fill="#5A5951"/>
</g>
</g>
<path d="M37.75 14.5877C36.6671 13.9625 35.3329 13.9625 34.25 14.5877L18.3314 23.7783C17.2485 24.4035 16.5814 25.559 16.5814 26.8094L16.5814 45.1906C16.5814 46.441 17.2485 47.5965 18.3314 48.2217L34.25 57.4123C35.3329 58.0375 36.6671 58.0375 37.75 57.4123L53.6686 48.2217C54.7515 47.5965 55.4186 46.441 55.4186 45.1906V26.8094C55.4186 25.559 54.7515 24.4035 53.6686 23.7783L37.75 14.5877Z" stroke="#FAB90A"/>
<path opacity="0.4" d="M37.75 57.4123C39.6222 56.3314 40.9487 55.5655 41.7296 55.1147" stroke="white" stroke-linecap="round"/>
<path d="M55.4186 45.1906V26.8094C55.4186 25.559 54.7515 24.4035 53.6686 23.7783L37.75 14.5877C36.6671 13.9625 35.3329 13.9625 34.25 14.5877L18.3314 23.7783C17.2485 24.4035 16.5814 25.559 16.5814 26.8094L16.5814 45.1906" stroke="#FAC81C" stroke-linecap="round"/>
<path opacity="0.6" d="M55.4186 26.8094C55.4186 25.559 54.7515 24.4035 53.6686 23.7783L37.75 14.5877C36.6671 13.9625 35.3329 13.9625 34.25 14.5877L18.3314 23.7783C17.2485 24.4035 16.5814 25.559 16.5814 26.8094" stroke="#FFE56A" stroke-linecap="round"/>
<path opacity="0.6" d="M37.75 14.5877C36.6671 13.9625 35.3329 13.9625 34.25 14.5877C34.25 14.5877 28.9438 17.6512 26.2907 19.183" stroke="white" stroke-linecap="round"/>
<path d="M34.25 14.5877C34.25 14.5877 31.4417 16.2091 30.2703 16.8854" stroke="white" stroke-linecap="round"/>
</g>
<g filter="url(#filter7_d_0_10934)">
<path fill-rule="evenodd" clip-rule="evenodd" d="M35 20.5774C35.6188 20.2201 36.3812 20.2201 37 20.5774L48.8564 27.4226C49.4752 27.7799 49.8564 28.4402 49.8564 29.1547V42.8453C49.8564 43.5598 49.4752 44.2201 48.8564 44.5774L37 51.4226C36.3812 51.7799 35.6188 51.7799 35 51.4226L23.1436 44.5774C22.5248 44.2201 22.1436 43.5598 22.1436 42.8453V29.1547C22.1436 28.4402 22.5248 27.7799 23.1436 27.4226L35 20.5774Z" fill="url(#paint30_linear_0_10934)"/>
<path d="M37.25 20.1443C36.4765 19.6978 35.5235 19.6978 34.75 20.1443L22.8936 26.9896C22.1201 27.4362 21.6436 28.2615 21.6436 29.1547V42.8453C21.6436 43.7385 22.1201 44.5638 22.8936 45.0104L34.75 51.8557C35.5235 52.3022 36.4765 52.3022 37.25 51.8557L49.1064 45.0104C49.8799 44.5638 50.3564 43.7385 50.3564 42.8453V29.1547C50.3564 28.2615 49.8799 27.4362 49.1064 26.9896L37.25 20.1443Z" stroke="#F5900D" stroke-opacity="0.1" style="mix-blend-mode:multiply"/>
</g>
<mask id="mask5_0_10934" style="mask-type:luminance" maskUnits="userSpaceOnUse" x="22" y="20" width="28" height="32">
<path fill-rule="evenodd" clip-rule="evenodd" d="M35 20.5774C35.6188 20.2201 36.3812 20.2201 37 20.5774L48.8564 27.4226C49.4752 27.7799 49.8564 28.4402 49.8564 29.1547V42.8453C49.8564 43.5598 49.4752 44.2201 48.8564 44.5774L37 51.4226C36.3812 51.7799 35.6188 51.7799 35 51.4226L23.1436 44.5774C22.5248 44.2201 22.1436 43.5598 22.1436 42.8453V29.1547C22.1436 28.4402 22.5248 27.7799 23.1436 27.4226L35 20.5774Z" fill="white"/>
</mask>
<g mask="url(#mask5_0_10934)">
<g style="mix-blend-mode:multiply" opacity="0.3">
<path fill-rule="evenodd" clip-rule="evenodd" d="M36 36L20 40V32L36 36ZM36 36L40 20H32L36 36ZM36 36L52 32V40L36 36ZM36 36L44.4853 21.8579L50.1421 27.5147L36 36ZM36 36L44.4853 50.1421L50.1421 44.4853L36 36ZM36 36L32 52H40L36 36ZM36 36L27.5147 50.1421L21.8578 44.4853L36 36Z" fill="#FFD640"/>
<path d="M27.5147 21.8579L21.8578 27.5147L36 36L27.5147 21.8579Z" fill="#FFD640"/>
</g>
<path opacity="0.4" d="M48.6064 27.8557L36.75 21.0104C36.2859 20.7424 35.7141 20.7424 35.25 21.0104C33.8556 21.8154 32.8675 22.3859 32.2859 22.7217C31.0754 23.4206 30.0874 23.991 29.3218 24.433C28.0044 25.1936 26.0283 26.3345 23.3936 27.8557" stroke="white" stroke-linecap="round"/>
<path d="M35.25 21.0104C33.8556 21.8154 32.8675 22.3859 32.2859 22.7217" stroke="white" stroke-linecap="round"/>
<path opacity="0.4" d="M48.6064 44.11L36.75 50.9553C36.2859 51.2232 35.7141 51.2232 35.25 50.9553" stroke="white" stroke-linecap="round"/>
</g>
<g filter="url(#filter8_d_0_10934)">
<mask id="path-51-outside-3_0_10934" maskUnits="userSpaceOnUse" x="25" y="27.8038" width="22" height="19" fill="black">
<rect fill="white" x="25" y="27.8038" width="22" height="19"/>
<path fill-rule="evenodd" clip-rule="evenodd" d="M27 35L30 29.8038H42L45 35H27ZM36 44L45 35H27L36 44Z"/>
</mask>
<path fill-rule="evenodd" clip-rule="evenodd" d="M27 35L30 29.8038H42L45 35H27ZM36 44L45 35H27L36 44Z" fill="white"/>
<path d="M30 29.8038V27.8038C29.2855 27.8038 28.6252 28.185 28.2679 28.8038L30 29.8038ZM27 35L25.2679 34C24.9107 34.6188 24.9107 35.3812 25.2679 36C25.6252 36.6188 26.2855 37 27 37V35ZM42 29.8038L43.732 28.8038C43.3748 28.185 42.7145 27.8038 42 27.8038V29.8038ZM45 35V37C45.7145 37 46.3748 36.6188 46.732 36C47.0893 35.3812 47.0893 34.6188 46.732 34L45 35ZM45 35L46.4142 36.4142C46.9862 35.8422 47.1573 34.982 46.8477 34.2346C46.5382 33.4873 45.8089 33 45 33V35ZM36 44L34.5858 45.4142C34.9608 45.7893 35.4696 46 36 46C36.5304 46 37.0391 45.7893 37.4142 45.4142L36 44ZM27 35V33C26.1911 33 25.4618 33.4873 25.1522 34.2346C24.8427 34.982 25.0138 35.8422 25.5858 36.4142L27 35ZM28.2679 28.8038L25.2679 34L28.732 36L31.732 30.8038L28.2679 28.8038ZM42 27.8038H30V31.8038H42V27.8038ZM46.732 34L43.732 28.8038L40.2679 30.8038L43.2679 36L46.732 34ZM27 37H45V33H27V37ZM43.5858 33.5858L34.5858 42.5858L37.4142 45.4142L46.4142 36.4142L43.5858 33.5858ZM27 37H45V33H27V37ZM37.4142 42.5858L28.4142 33.5858L25.5858 36.4142L34.5858 45.4142L37.4142 42.5858Z" fill="white" mask="url(#path-51-outside-3_0_10934)"/>
</g>
<path fill-rule="evenodd" clip-rule="evenodd" d="M36 44L45 35H27L36 44Z" fill="url(#paint31_linear_0_10934)"/>
<path fill-rule="evenodd" clip-rule="evenodd" d="M36 44L33 35H39L36 44Z" fill="url(#paint32_linear_0_10934)"/>
<path d="M30 29.8038L27 35H45L42 29.8038H30Z" fill="url(#paint33_linear_0_10934)"/>
<path d="M30 29.8038L33 35H27L30 29.8038Z" fill="url(#paint34_linear_0_10934)"/>
<path d="M36 29.8038L39 35H33L36 29.8038Z" fill="url(#paint35_linear_0_10934)"/>
<path d="M42 29.8038L45 35H39L42 29.8038Z" fill="url(#paint36_linear_0_10934)"/>
<g filter="url(#filter9_d_0_10934)">
<path fill-rule="evenodd" clip-rule="evenodd" d="M46.9109 29.7799L46.3916 29.5751C46.0739 29.4498 45.918 29.0908 46.0433 28.7732C46.1061 28.6138 46.2322 28.4877 46.3916 28.4249L46.9109 28.2201C47.5098 27.9839 47.9839 27.5098 48.2201 26.9109L48.4249 26.3916C48.5501 26.0739 48.9092 25.918 49.2268 26.0433C49.3861 26.1061 49.5123 26.2322 49.5751 26.3916L49.7799 26.9109C50.0161 27.5098 50.4902 27.9839 51.0891 28.2201L51.6084 28.4249C51.926 28.5502 52.082 28.9092 51.9567 29.2268C51.8939 29.3862 51.7677 29.5123 51.6084 29.5751L51.0891 29.7799C50.4902 30.0161 50.0161 30.4902 49.7799 31.0891L49.5751 31.6084C49.4498 31.9261 49.0908 32.082 48.7732 31.9567C48.6138 31.8939 48.4877 31.7678 48.4249 31.6084L48.2201 31.0891C47.9839 30.4902 47.5098 30.0161 46.9109 29.7799Z" fill="white"/>
</g>
<g filter="url(#filter10_d_0_10934)">
<path fill-rule="evenodd" clip-rule="evenodd" d="M26.6073 45.52L26.261 45.3834C26.0493 45.2999 25.9453 45.0605 26.0288 44.8488C26.0707 44.7426 26.1548 44.6585 26.261 44.6166L26.6073 44.48C27.0065 44.3226 27.3226 44.0065 27.48 43.6073L27.6166 43.261C27.7001 43.0493 27.9394 42.9453 28.1512 43.0289C28.2574 43.0707 28.3415 43.1548 28.3834 43.261L28.5199 43.6073C28.6774 44.0065 28.9935 44.3226 29.3927 44.48L29.7389 44.6166C29.9507 44.7001 30.0546 44.9395 29.9711 45.1512C29.9292 45.2574 29.8452 45.3415 29.7389 45.3834L29.3927 45.52C28.9935 45.6774 28.6774 45.9935 28.5199 46.3927L28.3834 46.739C28.2999 46.9507 28.0605 47.0547 27.8488 46.9711C27.7426 46.9293 27.6585 46.8452 27.6166 46.739L27.48 46.3927C27.3226 45.9935 27.0065 45.6774 26.6073 45.52Z" fill="white"/>
</g>
<g filter="url(#filter11_d_0_10934)">
<path fill-rule="evenodd" clip-rule="evenodd" d="M20.7591 31.1499L20.3263 30.9793C20.0616 30.8749 19.9317 30.5757 20.036 30.311C20.0884 30.1782 20.1935 30.0731 20.3263 30.0207L20.7591 29.8501C21.2581 29.6532 21.6532 29.2582 21.85 28.7591L22.0207 28.3263C22.1251 28.0616 22.4243 27.9317 22.689 28.0361C22.8218 28.0884 22.9269 28.1935 22.9792 28.3263L23.1499 28.7591C23.3468 29.2582 23.7418 29.6532 24.2409 29.8501L24.6737 30.0207C24.9384 30.1251 25.0683 30.4243 24.9639 30.689C24.9116 30.8218 24.8065 30.9269 24.6737 30.9793L24.2409 31.1499C23.7418 31.3468 23.3468 31.7418 23.1499 32.2409L22.9792 32.6737C22.8749 32.9384 22.5757 33.0683 22.311 32.9639C22.1782 32.9116 22.0731 32.8065 22.0207 32.6737L21.85 32.2409C21.6532 31.7418 21.2581 31.3468 20.7591 31.1499Z" fill="white"/>
</g>
<g filter="url(#filter12_d_0_10934)">
<path fill-rule="evenodd" clip-rule="evenodd" d="M46.4554 45.89L46.1958 45.7876C46.037 45.7249 45.959 45.5454 46.0216 45.3866C46.053 45.3069 46.1161 45.2439 46.1958 45.2124L46.4554 45.11C46.7549 44.9919 46.9919 44.7549 47.11 44.4555L47.2124 44.1958C47.2751 44.037 47.4546 43.959 47.6134 44.0216C47.6931 44.0531 47.7561 44.1161 47.7875 44.1958L47.89 44.4555C48.0081 44.7549 48.2451 44.9919 48.5445 45.11L48.8042 45.2124C48.963 45.2751 49.041 45.4546 48.9783 45.6134C48.9469 45.6931 48.8839 45.7561 48.8042 45.7876L48.5445 45.89C48.2451 46.0081 48.0081 46.2451 47.89 46.5445L47.7875 46.8042C47.7249 46.963 47.5454 47.041 47.3866 46.9784C47.3069 46.9469 47.2438 46.8839 47.2124 46.8042L47.11 46.5445C46.9919 46.2451 46.7549 46.0081 46.4554 45.89Z" fill="white"/>
</g>
<g filter="url(#filter13_d_0_10934)">
<path fill-rule="evenodd" clip-rule="evenodd" d="M42.3036 35.26L42.1305 35.1917C42.0246 35.1499 41.9727 35.0303 42.0144 34.9244C42.0354 34.8713 42.0774 34.8292 42.1305 34.8083L42.3036 34.74C42.5033 34.6613 42.6613 34.5033 42.74 34.3036L42.8083 34.1305C42.85 34.0246 42.9697 33.9727 43.0756 34.0144C43.1287 34.0354 43.1707 34.0774 43.1917 34.1305L43.26 34.3036C43.3387 34.5033 43.4967 34.6613 43.6964 34.74L43.8695 34.8083C43.9753 34.8501 44.0273 34.9697 43.9856 35.0756C43.9646 35.1287 43.9226 35.1708 43.8695 35.1917L43.6964 35.26C43.4967 35.3387 43.3387 35.4967 43.26 35.6964L43.1917 35.8695C43.1499 35.9754 43.0303 36.0273 42.9244 35.9856C42.8713 35.9646 42.8292 35.9226 42.8083 35.8695L42.74 35.6964C42.6613 35.4967 42.5033 35.3387 42.3036 35.26Z" fill="white"/>
</g>
<defs>
<filter id="filter0_d_0_10934" x="18" y="33" width="20" height="35.3833" filterUnits="userSpaceOnUse" color-interpolation-filters="sRGB">
<feFlood flood-opacity="0" result="BackgroundImageFix"/>
<feColorMatrix in="SourceAlpha" type="matrix" values="0 0 0 0 0 0 0 0 0 0 0 0 0 0 0 0 0 0 127 0" result="hardAlpha"/>
<feOffset dy="2"/>
<feGaussianBlur stdDeviation="1"/>
<feColorMatrix type="matrix" values="0 0 0 0 0.61352 0 0 0 0 0.61352 0 0 0 0 0.61352 0 0 0 0.2 0"/>
<feBlend mode="darken" in2="BackgroundImageFix" result="effect1_dropShadow_0_10934"/>
<feBlend mode="normal" in="SourceGraphic" in2="effect1_dropShadow_0_10934" result="shape"/>
</filter>
<filter id="filter1_d_0_10934" x="22" y="36" width="20" height="35.3833" filterUnits="userSpaceOnUse" color-interpolation-filters="sRGB">
<feFlood flood-opacity="0" result="BackgroundImageFix"/>
<feColorMatrix in="SourceAlpha" type="matrix" values="0 0 0 0 0 0 0 0 0 0 0 0 0 0 0 0 0 0 127 0" result="hardAlpha"/>
<feOffset dy="2"/>
<feGaussianBlur stdDeviation="1"/>
<feColorMatrix type="matrix" values="0 0 0 0 0.61352 0 0 0 0 0.61352 0 0 0 0 0.61352 0 0 0 0.2 0"/>
<feBlend mode="darken" in2="BackgroundImageFix" result="effect1_dropShadow_0_10934"/>
<feBlend mode="normal" in="SourceGraphic" in2="effect1_dropShadow_0_10934" result="shape"/>
</filter>
<filter id="filter2_d_0_10934" x="34" y="33" width="20" height="35.3833" filterUnits="userSpaceOnUse" color-interpolation-filters="sRGB">
<feFlood flood-opacity="0" result="BackgroundImageFix"/>
<feColorMatrix in="SourceAlpha" type="matrix" values="0 0 0 0 0 0 0 0 0 0 0 0 0 0 0 0 0 0 127 0" result="hardAlpha"/>
<feOffset dy="2"/>
<feGaussianBlur stdDeviation="1"/>
<feColorMatrix type="matrix" values="0 0 0 0 0.61352 0 0 0 0 0.61352 0 0 0 0 0.61352 0 0 0 0.2 0"/>
<feBlend mode="darken" in2="BackgroundImageFix" result="effect1_dropShadow_0_10934"/>
<feBlend mode="normal" in="SourceGraphic" in2="effect1_dropShadow_0_10934" result="shape"/>
</filter>
<filter id="filter3_d_0_10934" x="30" y="36" width="20" height="35.3833" filterUnits="userSpaceOnUse" color-interpolation-filters="sRGB">
<feFlood flood-opacity="0" result="BackgroundImageFix"/>
<feColorMatrix in="SourceAlpha" type="matrix" values="0 0 0 0 0 0 0 0 0 0 0 0 0 0 0 0 0 0 127 0" result="hardAlpha"/>
<feOffset dy="2"/>
<feGaussianBlur stdDeviation="1"/>
<feColorMatrix type="matrix" values="0 0 0 0 0.61352 0 0 0 0 0.61352 0 0 0 0 0.61352 0 0 0 0.2 0"/>
<feBlend mode="darken" in2="BackgroundImageFix" result="effect1_dropShadow_0_10934"/>
<feBlend mode="normal" in="SourceGraphic" in2="effect1_dropShadow_0_10934" result="shape"/>
</filter>
<filter id="filter4_d_0_10934" x="26" y="38" width="20" height="35.3833" filterUnits="userSpaceOnUse" color-interpolation-filters="sRGB">
<feFlood flood-opacity="0" result="BackgroundImageFix"/>
<feColorMatrix in="SourceAlpha" type="matrix" values="0 0 0 0 0 0 0 0 0 0 0 0 0 0 0 0 0 0 127 0" result="hardAlpha"/>
<feOffset dy="2"/>
<feGaussianBlur stdDeviation="1"/>
<feColorMatrix type="matrix" values="0 0 0 0 0.61352 0 0 0 0 0.61352 0 0 0 0 0.61352 0 0 0 0.2 0"/>
<feBlend mode="darken" in2="BackgroundImageFix" result="effect1_dropShadow_0_10934"/>
<feBlend mode="normal" in="SourceGraphic" in2="effect1_dropShadow_0_10934" result="shape"/>
</filter>
<filter id="filter5_i_0_10934" x="18" y="45.1275" width="36" height="15.9443" filterUnits="userSpaceOnUse" color-interpolation-filters="sRGB">
<feFlood flood-opacity="0" result="BackgroundImageFix"/>
<feBlend mode="normal" in="SourceGraphic" in2="BackgroundImageFix" result="shape"/>
<feColorMatrix in="SourceAlpha" type="matrix" values="0 0 0 0 0 0 0 0 0 0 0 0 0 0 0 0 0 0 127 0" result="hardAlpha"/>
<feOffset dy="1"/>
<feGaussianBlur stdDeviation="0.5"/>
<feComposite in2="hardAlpha" operator="arithmetic" k2="-1" k3="1"/>
<feColorMatrix type="matrix" values="0 0 0 0 0.929412 0 0 0 0 0.568627 0 0 0 0 0 0 0 0 0.5 0"/>
<feBlend mode="normal" in2="shape" result="effect1_innerShadow_0_10934"/>
</filter>
<filter id="filter6_di_0_10934" x="16.4973" y="16" width="39.0053" height="40.8" filterUnits="userSpaceOnUse" color-interpolation-filters="sRGB">
<feFlood flood-opacity="0" result="BackgroundImageFix"/>
<feColorMatrix in="SourceAlpha" type="matrix" values="0 0 0 0 0 0 0 0 0 0 0 0 0 0 0 0 0 0 127 0" result="hardAlpha"/>
<feOffset dy="0.4"/>
<feGaussianBlur stdDeviation="0.5"/>
<feColorMatrix type="matrix" values="0 0 0 0 1 0 0 0 0 0.909804 0 0 0 0 0.556863 0 0 0 0.4 0"/>
<feBlend mode="normal" in2="BackgroundImageFix" result="effect1_dropShadow_0_10934"/>
<feBlend mode="normal" in="SourceGraphic" in2="effect1_dropShadow_0_10934" result="shape"/>
<feColorMatrix in="SourceAlpha" type="matrix" values="0 0 0 0 0 0 0 0 0 0 0 0 0 0 0 0 0 0 127 0" result="hardAlpha"/>
<feOffset dy="1"/>
<feGaussianBlur stdDeviation="0.5"/>
<feComposite in2="hardAlpha" operator="arithmetic" k2="-1" k3="1"/>
<feColorMatrix type="matrix" values="0 0 0 0 0.31048 0 0 0 0 0.31048 0 0 0 0 0.279572 0 0 0 1 0"/>
<feBlend mode="normal" in2="shape" result="effect2_innerShadow_0_10934"/>
</filter>
<filter id="filter7_d_0_10934" x="19.1436" y="18.3094" width="33.7128" height="37.3812" filterUnits="userSpaceOnUse" color-interpolation-filters="sRGB">
<feFlood flood-opacity="0" result="BackgroundImageFix"/>
<feColorMatrix in="SourceAlpha" type="matrix" values="0 0 0 0 0 0 0 0 0 0 0 0 0 0 0 0 0 0 127 0" result="hardAlpha"/>
<feOffset dy="1"/>
<feGaussianBlur stdDeviation="1"/>
<feColorMatrix type="matrix" values="0 0 0 0 0.927721 0 0 0 0 0.665867 0 0 0 0 0.0535899 0 0 0 0.4 0"/>
<feBlend mode="normal" in2="BackgroundImageFix" result="effect1_dropShadow_0_10934"/>
<feBlend mode="normal" in="SourceGraphic" in2="effect1_dropShadow_0_10934" result="shape"/>
</filter>
<filter id="filter8_d_0_10934" x="22.9999" y="26.8038" width="26.0001" height="22.1962" filterUnits="userSpaceOnUse" color-interpolation-filters="sRGB">
<feFlood flood-opacity="0" result="BackgroundImageFix"/>
<feColorMatrix in="SourceAlpha" type="matrix" values="0 0 0 0 0 0 0 0 0 0 0 0 0 0 0 0 0 0 127 0" result="hardAlpha"/>
<feOffset dy="1"/>
<feGaussianBlur stdDeviation="1"/>
<feColorMatrix type="matrix" values="0 0 0 0 0.996078 0 0 0 0 0.733333 0 0 0 0 0.105882 0 0 0 1 0"/>
<feBlend mode="normal" in2="BackgroundImageFix" result="effect1_dropShadow_0_10934"/>
<feBlend mode="normal" in="SourceGraphic" in2="effect1_dropShadow_0_10934" result="shape"/>
</filter>
<filter id="filter9_d_0_10934" x="44" y="24" width="10" height="10" filterUnits="userSpaceOnUse" color-interpolation-filters="sRGB">
<feFlood flood-opacity="0" result="BackgroundImageFix"/>
<feColorMatrix in="SourceAlpha" type="matrix" values="0 0 0 0 0 0 0 0 0 0 0 0 0 0 0 0 0 0 127 0" result="hardAlpha"/>
<feOffset/>
<feGaussianBlur stdDeviation="1"/>
<feColorMatrix type="matrix" values="0 0 0 0 1 0 0 0 0 0.94902 0 0 0 0 0.305882 0 0 0 1 0"/>
<feBlend mode="normal" in2="BackgroundImageFix" result="effect1_dropShadow_0_10934"/>
<feBlend mode="normal" in="SourceGraphic" in2="effect1_dropShadow_0_10934" result="shape"/>
</filter>
<filter id="filter10_d_0_10934" x="24" y="41" width="8" height="8" filterUnits="userSpaceOnUse" color-interpolation-filters="sRGB">
<feFlood flood-opacity="0" result="BackgroundImageFix"/>
<feColorMatrix in="SourceAlpha" type="matrix" values="0 0 0 0 0 0 0 0 0 0 0 0 0 0 0 0 0 0 127 0" result="hardAlpha"/>
<feOffset/>
<feGaussianBlur stdDeviation="1"/>
<feColorMatrix type="matrix" values="0 0 0 0 1 0 0 0 0 0.94902 0 0 0 0 0.305882 0 0 0 1 0"/>
<feBlend mode="normal" in2="BackgroundImageFix" result="effect1_dropShadow_0_10934"/>
<feBlend mode="normal" in="SourceGraphic" in2="effect1_dropShadow_0_10934" result="shape"/>
</filter>
<filter id="filter11_d_0_10934" x="18" y="26" width="9" height="9" filterUnits="userSpaceOnUse" color-interpolation-filters="sRGB">
<feFlood flood-opacity="0" result="BackgroundImageFix"/>
<feColorMatrix in="SourceAlpha" type="matrix" values="0 0 0 0 0 0 0 0 0 0 0 0 0 0 0 0 0 0 127 0" result="hardAlpha"/>
<feOffset/>
<feGaussianBlur stdDeviation="1"/>
<feColorMatrix type="matrix" values="0 0 0 0 1 0 0 0 0 0.94902 0 0 0 0 0.305882 0 0 0 1 0"/>
<feBlend mode="normal" in2="BackgroundImageFix" result="effect1_dropShadow_0_10934"/>
<feBlend mode="normal" in="SourceGraphic" in2="effect1_dropShadow_0_10934" result="shape"/>
</filter>
<filter id="filter12_d_0_10934" x="44" y="42" width="7" height="7" filterUnits="userSpaceOnUse" color-interpolation-filters="sRGB">
<feFlood flood-opacity="0" result="BackgroundImageFix"/>
<feColorMatrix in="SourceAlpha" type="matrix" values="0 0 0 0 0 0 0 0 0 0 0 0 0 0 0 0 0 0 127 0" result="hardAlpha"/>
<feOffset/>
<feGaussianBlur stdDeviation="1"/>
<feColorMatrix type="matrix" values="0 0 0 0 1 0 0 0 0 0.94902 0 0 0 0 0.305882 0 0 0 1 0"/>
<feBlend mode="normal" in2="BackgroundImageFix" result="effect1_dropShadow_0_10934"/>
<feBlend mode="normal" in="SourceGraphic" in2="effect1_dropShadow_0_10934" result="shape"/>
</filter>
<filter id="filter13_d_0_10934" x="40" y="32" width="6" height="6" filterUnits="userSpaceOnUse" color-interpolation-filters="sRGB">
<feFlood flood-opacity="0" result="BackgroundImageFix"/>
<feColorMatrix in="SourceAlpha" type="matrix" values="0 0 0 0 0 0 0 0 0 0 0 0 0 0 0 0 0 0 127 0" result="hardAlpha"/>
<feOffset/>
<feGaussianBlur stdDeviation="1"/>
<feColorMatrix type="matrix" values="0 0 0 0 1 0 0 0 0 0.94902 0 0 0 0 0.305882 0 0 0 1 0"/>
<feBlend mode="normal" in2="BackgroundImageFix" result="effect1_dropShadow_0_10934"/>
<feBlend mode="normal" in="SourceGraphic" in2="effect1_dropShadow_0_10934" result="shape"/>
</filter>
<linearGradient id="paint0_linear_0_10934" x1="5" y1="6" x2="5" y2="66" gradientUnits="userSpaceOnUse">
<stop stop-color="#575753"/>
<stop offset="1" stop-color="#403F36"/>
</linearGradient>
<linearGradient id="paint1_linear_0_10934" x1="6.00422" y1="19.0862" x2="6.00422" y2="44.1237" gradientUnits="userSpaceOnUse">
<stop stop-color="#75756F"/>
<stop offset="1" stop-color="#3A342A"/>
</linearGradient>
<linearGradient id="paint2_linear_0_10934" x1="13.9759" y1="33.99" x2="13.9759" y2="44.1237" gradientUnits="userSpaceOnUse">
<stop stop-color="#FFDF6B"/>
<stop offset="1" stop-color="#F8A60A"/>
</linearGradient>
<linearGradient id="paint3_linear_0_10934" x1="3.96663" y1="18.978" x2="3.96663" y2="44.0858" gradientUnits="userSpaceOnUse">
<stop stop-color="#75756F"/>
<stop offset="1" stop-color="#3A342A"/>
</linearGradient>
<linearGradient id="paint4_linear_0_10934" x1="11.9759" y1="28.99" x2="11.9759" y2="39.1237" gradientUnits="userSpaceOnUse">
<stop stop-color="#FFDF6B"/>
<stop offset="1" stop-color="#F8A60A"/>
</linearGradient>
<linearGradient id="paint5_linear_0_10934" x1="1.90722" y1="18.9436" x2="1.90722" y2="44.1625" gradientUnits="userSpaceOnUse">
<stop stop-color="#75756F"/>
<stop offset="1" stop-color="#3A342A"/>
</linearGradient>
<linearGradient id="paint6_linear_0_10934" x1="9.97589" y1="23.99" x2="9.97589" y2="34.1237" gradientUnits="userSpaceOnUse">
<stop stop-color="#FFDF6B"/>
<stop offset="1" stop-color="#F8A60A"/>
</linearGradient>
<linearGradient id="paint7_linear_0_10934" x1="-0.0649059" y1="18.99" x2="-0.0649059" y2="44.1568" gradientUnits="userSpaceOnUse">
<stop stop-color="#75756F"/>
<stop offset="1" stop-color="#3A342A"/>
</linearGradient>
<linearGradient id="paint8_linear_0_10934" x1="7.97594" y1="18.99" x2="7.97594" y2="29.1237" gradientUnits="userSpaceOnUse">
<stop stop-color="#FFDF6B"/>
<stop offset="1" stop-color="#F8A60A"/>
</linearGradient>
<linearGradient id="paint9_linear_0_10934" x1="65.9957" y1="19.0862" x2="65.9957" y2="44.1237" gradientUnits="userSpaceOnUse">
<stop stop-color="#75756F"/>
<stop offset="1" stop-color="#3A342A"/>
</linearGradient>
<linearGradient id="paint10_linear_0_10934" x1="58.024" y1="33.99" x2="58.024" y2="44.1237" gradientUnits="userSpaceOnUse">
<stop stop-color="#FFDF6B"/>
<stop offset="1" stop-color="#F8A60A"/>
</linearGradient>
<linearGradient id="paint11_linear_0_10934" x1="68.0333" y1="18.978" x2="68.0333" y2="44.0858" gradientUnits="userSpaceOnUse">
<stop stop-color="#75756F"/>
<stop offset="1" stop-color="#3A342A"/>
</linearGradient>
<linearGradient id="paint12_linear_0_10934" x1="60.024" y1="28.99" x2="60.024" y2="39.1237" gradientUnits="userSpaceOnUse">
<stop stop-color="#FFDF6B"/>
<stop offset="1" stop-color="#F8A60A"/>
</linearGradient>
<linearGradient id="paint13_linear_0_10934" x1="70.0927" y1="18.9436" x2="70.0927" y2="44.1625" gradientUnits="userSpaceOnUse">
<stop stop-color="#75756F"/>
<stop offset="1" stop-color="#3A342A"/>
</linearGradient>
<linearGradient id="paint14_linear_0_10934" x1="62.024" y1="23.99" x2="62.024" y2="34.1237" gradientUnits="userSpaceOnUse">
<stop stop-color="#FFDF6B"/>
<stop offset="1" stop-color="#F8A60A"/>
</linearGradient>
<linearGradient id="paint15_linear_0_10934" x1="72.0649" y1="18.99" x2="72.0649" y2="44.1568" gradientUnits="userSpaceOnUse">
<stop stop-color="#75756F"/>
<stop offset="1" stop-color="#3A342A"/>
</linearGradient>
<linearGradient id="paint16_linear_0_10934" x1="64.024" y1="18.99" x2="64.024" y2="29.1237" gradientUnits="userSpaceOnUse">
<stop stop-color="#FFDF6B"/>
<stop offset="1" stop-color="#F8A60A"/>
</linearGradient>
<linearGradient id="paint17_linear_0_10934" x1="13.1549" y1="42" x2="13.1549" y2="50.9775" gradientUnits="userSpaceOnUse">
<stop stop-color="#75756F"/>
<stop offset="1" stop-color="#3A342A"/>
</linearGradient>
<linearGradient id="paint18_linear_0_10934" x1="13.1549" y1="42" x2="13.1549" y2="50.9775" gradientUnits="userSpaceOnUse">
<stop stop-color="#FFDF6B"/>
<stop offset="1" stop-color="#F8A60A"/>
</linearGradient>
<linearGradient id="paint19_linear_0_10934" x1="59" y1="42" x2="59" y2="51.5" gradientUnits="userSpaceOnUse">
<stop stop-color="#75756F"/>
<stop offset="1" stop-color="#3A342A"/>
</linearGradient>
<linearGradient id="paint20_linear_0_10934" x1="59" y1="42" x2="59" y2="51.5" gradientUnits="userSpaceOnUse">
<stop stop-color="#FFDF6B"/>
<stop offset="1" stop-color="#F8A60A"/>
</linearGradient>
<linearGradient id="paint21_linear_0_10934" x1="27" y1="11" x2="27" y2="17.4873" gradientUnits="userSpaceOnUse">
<stop stop-color="#75756F"/>
<stop offset="1" stop-color="#3A342A"/>
</linearGradient>
<linearGradient id="paint22_linear_0_10934" x1="27" y1="11" x2="27" y2="17.4873" gradientUnits="userSpaceOnUse">
<stop stop-color="#FFDF6B"/>
<stop offset="1" stop-color="#F8A60A"/>
</linearGradient>
<linearGradient id="paint23_linear_0_10934" x1="18" y1="45.1288" x2="18" y2="60.0718" gradientUnits="userSpaceOnUse">
<stop stop-color="#F39C05"/>
<stop offset="1" stop-color="#F59100"/>
</linearGradient>
<linearGradient id="paint24_linear_0_10934" x1="18" y1="45.1288" x2="18" y2="60.0718" gradientUnits="userSpaceOnUse">
<stop stop-color="#FFBA45"/>
<stop offset="1" stop-color="#F59100"/>
</linearGradient>
<linearGradient id="paint25_linear_0_10934" x1="20" y1="11.3004" x2="20" y2="26.1334" gradientUnits="userSpaceOnUse">
<stop stop-color="#75756F"/>
<stop offset="1" stop-color="#3A342A"/>
</linearGradient>
<linearGradient id="paint26_linear_0_10934" x1="20" y1="11.3004" x2="20" y2="26.1334" gradientUnits="userSpaceOnUse">
<stop stop-color="#FFDF6B"/>
<stop offset="1" stop-color="#F8A60A"/>
</linearGradient>
<linearGradient id="paint27_linear_0_10934" x1="40" y1="11.3004" x2="40" y2="26.1334" gradientUnits="userSpaceOnUse">
<stop stop-color="#75756F"/>
<stop offset="1" stop-color="#3A342A"/>
</linearGradient>
<linearGradient id="paint28_linear_0_10934" x1="40" y1="11.3004" x2="40" y2="26.1334" gradientUnits="userSpaceOnUse">
<stop stop-color="#FFDF6B"/>
<stop offset="1" stop-color="#F8A60A"/>
</linearGradient>
<linearGradient id="paint29_linear_0_10934" x1="13" y1="13" x2="13" y2="59" gradientUnits="userSpaceOnUse">
<stop stop-color="#FDE046"/>
<stop offset="1" stop-color="#F9B800"/>
</linearGradient>
<linearGradient id="paint30_linear_0_10934" x1="20" y1="20" x2="20" y2="52" gradientUnits="userSpaceOnUse">
<stop stop-color="#FFF550"/>
<stop offset="1" stop-color="#FFD541"/>
</linearGradient>
<linearGradient id="paint31_linear_0_10934" x1="36" y1="44" x2="36" y2="35" gradientUnits="userSpaceOnUse">
<stop stop-color="#878787"/>
<stop offset="1" stop-color="#1F1F1F"/>
</linearGradient>
<linearGradient id="paint32_linear_0_10934" x1="39" y1="44" x2="39" y2="35" gradientUnits="userSpaceOnUse">
<stop stop-color="#878787"/>
<stop offset="1" stop-color="#4E4E4E"/>
</linearGradient>
<linearGradient id="paint33_linear_0_10934" x1="45" y1="35" x2="45" y2="29.8038" gradientUnits="userSpaceOnUse">
<stop stop-color="white"/>
<stop offset="1" stop-color="#A8A8A8"/>
</linearGradient>
<linearGradient id="paint34_linear_0_10934" x1="29" y1="35" x2="29" y2="30.6699" gradientUnits="userSpaceOnUse">
<stop stop-color="#818181"/>
<stop offset="1" stop-color="#A0A0A0"/>
</linearGradient>
<linearGradient id="paint35_linear_0_10934" x1="35" y1="35" x2="35" y2="30.6699" gradientUnits="userSpaceOnUse">
<stop stop-color="#818181"/>
<stop offset="1" stop-color="#A0A0A0"/>
</linearGradient>
<linearGradient id="paint36_linear_0_10934" x1="41" y1="35" x2="41" y2="30.6699" gradientUnits="userSpaceOnUse">
<stop stop-color="#818181"/>
<stop offset="1" stop-color="#A0A0A0"/>
</linearGradient>
</defs>
</svg>
